<svg width="148" height="27" viewBox="0 0 148 27" fill="none" xmlns="http://www.w3.org/2000/svg">
<path fill-rule="evenodd" clip-rule="evenodd" d="M29.777 22.6769C29.777 25.1199 28.927 26.1189 26.612 26.1189H6.07001C3.75401 26.1189 2.90501 25.1199 2.90501 22.6769V17.9199C2.90501 15.6259 1.80001 14.3299 0.738006 13.7359C0.664944 13.6916 0.604535 13.6293 0.562609 13.5548C0.520683 13.4804 0.498657 13.3964 0.498657 13.3109C0.498657 13.2255 0.520683 13.1415 0.562609 13.0671C0.604535 12.9926 0.664944 12.9302 0.738006 12.8859C1.84301 12.1849 2.90501 10.7189 2.90501 8.76494V4.08994C2.90501 1.45594 3.62701 0.689941 5.94201 0.689941H26.74C29.056 0.689941 29.778 1.45594 29.778 4.08994V8.76294C29.778 10.7169 30.84 12.1829 31.944 12.8829C32.264 13.0959 32.264 13.5429 31.944 13.7329C30.882 14.3489 29.778 15.6449 29.778 17.9179V22.6759L29.777 22.6769ZM10.319 19.5549C11.997 21.0199 13.803 21.7639 16.289 21.7639C20.197 21.7639 22.746 19.8099 22.746 16.6439C22.746 13.2919 19.71 12.4369 17.241 11.7419C15.548 11.2649 14.121 10.8629 14.121 9.78294C14.121 9.08294 14.865 8.40294 16.118 8.40294C17.329 8.40294 18.328 8.65794 19.283 9.14594C19.602 9.29494 19.899 9.40094 20.175 9.40094C20.579 9.40094 20.898 9.20994 21.174 8.82794L21.556 8.25394C21.705 8.04194 21.769 7.80794 21.769 7.55394C21.769 7.12794 21.556 6.70394 21.238 6.49094C19.963 5.68394 18.242 5.00394 15.906 5.00394C12.592 5.00394 10.043 6.74594 10.043 9.86794C10.043 13.3589 13.145 14.2449 15.629 14.9529C17.286 15.4259 18.667 15.8199 18.667 16.8569C18.667 17.8549 17.733 18.3439 16.564 18.3439C15.1603 18.3573 13.7847 17.9505 12.614 17.1759C12.252 16.9419 11.912 16.7929 11.551 16.7929C11.232 16.7929 10.956 16.9419 10.701 17.2609L10.191 17.9189C10.001 18.1319 9.93701 18.4079 9.93701 18.6629C9.93701 18.9809 10.043 19.2999 10.319 19.5549ZM42.055 17.5999C41.779 17.5999 41.545 17.7069 41.333 17.9829L40.908 18.5779C40.738 18.7679 40.695 19.0019 40.695 19.2149C40.695 19.4909 40.801 19.7669 41.035 19.9799C42.437 21.1899 43.967 21.8279 46.07 21.8279C49.362 21.8279 51.529 20.1709 51.529 17.5149C51.529 14.6909 48.961 13.9699 46.875 13.3839C45.446 12.9819 44.243 12.6439 44.243 11.7379C44.243 11.1219 44.88 10.5689 45.921 10.5689C46.8444 10.5657 47.7549 10.7845 48.576 11.2069L48.64 11.2309C48.892 11.3289 49.125 11.4189 49.34 11.4189C49.66 11.4189 49.936 11.2699 50.17 10.9299L50.51 10.4419C50.6248 10.2572 50.6838 10.0434 50.68 9.82594C50.68 9.46494 50.51 9.10394 50.233 8.93394C49.15 8.21094 47.705 7.65894 45.73 7.65894C42.947 7.65894 40.78 9.14594 40.78 11.7799C40.78 14.7069 43.395 15.4539 45.492 16.0519C46.895 16.4519 48.066 16.7869 48.066 17.6639C48.066 18.5349 47.28 18.9389 46.282 18.9389C44.986 18.9389 43.902 18.5779 42.947 17.9399C42.671 17.7279 42.331 17.5999 42.055 17.5999ZM62.341 19.8949C62.3444 19.7137 62.2924 19.5358 62.192 19.3849L61.916 18.9389C61.661 18.4929 61.364 18.3229 60.981 18.3229C60.791 18.3229 60.578 18.3649 60.301 18.4709C60.026 18.5779 59.707 18.6199 59.346 18.6199C58.22 18.6199 57.731 17.6429 57.731 16.1769V11.2499H60.981C61.597 11.2499 62.107 10.7399 62.107 10.1239V9.10394C62.107 8.48894 61.597 7.97894 60.981 7.97894H57.731V5.34494C57.731 4.72894 57.221 4.21894 56.606 4.21894H55.395C54.779 4.21894 54.269 4.72894 54.269 5.34494V16.3049C54.269 19.7679 55.416 21.7439 58.454 21.7439C59.792 21.7439 60.812 21.4679 61.831 20.8509C62.171 20.6809 62.341 20.2779 62.341 19.8959V19.8949ZM69.223 13.1399C66.483 13.1399 64.295 14.5419 64.295 17.5149C64.295 20.1279 66.058 21.6579 68.459 21.6789C70.285 21.6789 71.729 20.9779 72.452 19.9589V20.4039C72.452 21.0199 72.962 21.5299 73.578 21.5299H74.364C74.98 21.5299 75.49 21.0199 75.49 20.4039V13.3099C75.49 9.74194 74.109 7.70294 70.116 7.70294C68.735 7.70294 67.396 8.06294 66.228 8.59494C65.868 8.76494 65.591 9.16794 65.591 9.55094C65.5961 9.67333 65.6239 9.7937 65.673 9.90594C65.689 9.95094 65.706 9.99594 65.718 10.0389L65.888 10.3999C66.101 10.8249 66.462 11.0379 66.908 11.0379C67.042 11.0379 67.189 10.9979 67.329 10.9599L67.439 10.9309C68.076 10.7189 68.735 10.5709 69.754 10.5709C71.624 10.5709 72.261 11.6319 72.261 13.6079V14.0119C71.602 13.5229 70.413 13.1409 69.223 13.1409V13.1399ZM69.903 15.4549C70.88 15.4549 71.645 15.6669 72.261 16.1139H72.282V17.5149C71.857 18.0889 71.114 18.7259 69.669 18.7259C68.565 18.7259 67.736 18.1529 67.736 17.1329C67.736 15.9859 68.756 15.4549 69.903 15.4549ZM86.812 19.8949C86.8154 19.7137 86.7634 19.5358 86.663 19.3849L86.387 18.9389C86.132 18.4929 85.835 18.3229 85.452 18.3229C85.262 18.3229 85.049 18.3649 84.772 18.4709C84.496 18.5779 84.178 18.6199 83.817 18.6199C82.691 18.6199 82.202 17.6429 82.202 16.1769V11.2499H85.452C86.068 11.2499 86.578 10.7399 86.578 10.1239V9.10394C86.578 8.48894 86.068 7.97894 85.452 7.97894H82.202V5.34494C82.202 4.72894 81.692 4.21894 81.076 4.21894H79.866C79.25 4.21894 78.74 4.72894 78.74 5.34494V16.3049C78.74 19.7679 79.887 21.7439 82.924 21.7439C84.263 21.7439 85.282 21.4679 86.302 20.8509C86.642 20.6809 86.812 20.2779 86.812 19.8959V19.8949ZM93.694 13.1399C90.954 13.1399 88.766 14.5419 88.766 17.5149C88.766 20.1279 90.55 21.6579 92.929 21.6789C94.756 21.6789 96.201 20.9779 96.923 19.9589V20.4039C96.923 21.0199 97.433 21.5299 98.049 21.5299H98.835C99.451 21.5299 99.961 21.0199 99.961 20.4039V13.3099C99.961 9.74194 98.58 7.70294 94.586 7.70294C93.206 7.70294 91.867 8.06294 90.699 8.59494C90.338 8.76494 90.062 9.16794 90.062 9.55094C90.0671 9.67333 90.0949 9.7937 90.144 9.90594C90.16 9.95094 90.177 9.99594 90.189 10.0389L90.359 10.3999C90.572 10.8249 90.933 11.0379 91.379 11.0379C91.513 11.0379 91.66 10.9979 91.799 10.9599L91.909 10.9309C92.547 10.7189 93.206 10.5709 94.225 10.5709C96.095 10.5709 96.732 11.6319 96.732 13.6079V14.0119C96.073 13.5229 94.884 13.1409 93.694 13.1409V13.1399ZM94.374 15.4549C95.351 15.4549 96.116 15.6669 96.732 16.1139H96.753V17.5149C96.328 18.0889 95.585 18.7259 94.14 18.7259C93.036 18.7259 92.207 18.1529 92.207 17.1329C92.207 15.9859 93.227 15.4549 94.374 15.4549ZM111.176 7.74494C109.519 7.74494 107.926 8.40294 106.97 9.46494H106.907V9.08194C106.907 8.46594 106.397 7.95594 105.781 7.95594H104.57C103.954 7.95594 103.444 8.46594 103.444 9.08194V20.3619C103.444 20.9779 103.954 21.4879 104.57 21.4879H105.781C106.397 21.4879 106.907 20.9779 106.907 20.3619V12.4169C107.523 11.5039 108.521 10.9729 109.732 10.9729C111.176 10.9729 111.962 11.8859 111.962 13.3099V20.3199C111.962 20.9349 112.472 21.4449 113.088 21.4449H114.299C114.915 21.4449 115.425 20.9349 115.425 20.3189V13.5009C115.425 13.3249 115.418 13.1049 115.413 12.9069C115.408 12.7449 115.403 12.5969 115.403 12.5019C115.871 11.5889 116.89 10.9519 118.186 10.9519C119.822 10.9519 120.502 11.8649 120.502 13.5429V20.3619C120.502 20.9779 121.011 21.4879 121.627 21.4879H122.838C123.454 21.4879 123.964 20.9779 123.964 20.3619V12.6719C123.964 8.95494 122.116 7.74394 119.652 7.74394C117.57 7.74394 116.062 8.63594 115.106 9.91094C114.618 8.67894 113.237 7.74394 111.176 7.74394V7.74494ZM129.784 5.27994C130.761 5.27994 131.76 4.49394 131.76 3.11294C131.76 1.90294 130.761 1.11694 129.784 1.11694C128.616 1.11694 127.618 1.90294 127.618 3.11294C127.618 4.49394 128.616 5.27994 129.784 5.27994ZM131.441 9.10394C131.441 8.48794 130.931 7.97794 130.315 7.97794V7.95594H129.105C128.489 7.95594 127.979 8.46594 127.979 9.08194V20.3619C127.979 20.9779 128.489 21.4879 129.105 21.4879H130.315C130.931 21.4879 131.441 20.9779 131.441 20.3619V9.10394ZM142.381 10.8879C143.252 10.8879 143.953 11.0369 144.76 11.4189C144.903 11.4989 145.058 11.5299 145.198 11.5589L145.333 11.5889C145.737 11.5889 146.119 11.3339 146.353 10.9519L146.799 10.1659C146.905 10.0169 146.927 9.84694 146.927 9.67694C146.927 9.29494 146.735 8.84894 146.396 8.67894C145.079 7.95594 143.762 7.65894 141.956 7.65894C137.835 7.65894 134.967 10.8029 134.967 14.7329C134.967 18.9809 137.92 21.8059 142.381 21.8059C144.059 21.8059 145.482 21.5089 147.097 20.2129C147.351 20.0219 147.5 19.6179 147.5 19.2569C147.5 19.0239 147.436 18.7899 147.288 18.6409L146.778 18.0039C146.666 17.8643 146.523 17.7518 146.361 17.6746C146.199 17.5974 146.022 17.5575 145.843 17.5579C145.61 17.5579 145.355 17.6429 145.121 17.7919C144.335 18.3019 143.57 18.5779 142.508 18.5779C140.469 18.5779 138.621 17.0909 138.621 14.7119C138.621 12.3539 140.448 10.8879 142.381 10.8879Z" fill="#9CA3AF"/>
</svg>
